<svg xmlns="http://www.w3.org/2000/svg" width="499.998" height="499.998" viewBox="0 0 60 60">
  <defs>
    <style>
      .cls-1 {
        fill-rule: evenodd;
      }
    </style>
  </defs>
  <path id="icon" class="cls-1" d="M57.6,31.182a27.249,27.249,0,0,1-5.18,15l-1.947-1.392a24.824,24.824,0,0,0,4.724-13.587h-2.4v-2.4h2.4A25.017,25.017,0,0,0,50.468,15.29l1.947-1.416A27.428,27.428,0,0,1,57.6,28.806l2.4-.024v2.4H57.6Zm-11.621-18.8,8.414-8.4,1.7,1.7-8.414,8.4ZM31.2,4.884V7.2H28.8V4.884A24.986,24.986,0,0,0,15.227,9.6L13.773,7.656A27.441,27.441,0,0,1,28.8,2.483V0h2.4V2.483A27.441,27.441,0,0,1,46.225,7.656L44.771,9.6A24.985,24.985,0,0,0,31.2,4.884ZM16.229,17.943L0.3,2.037,2,0.34,17.929,16.245ZM7.583,13.85L9.53,15.266A25.018,25.018,0,0,0,4.807,28.782h2.4v2.4h-2.4A24.825,24.825,0,0,0,9.53,44.769L7.583,46.186a27.247,27.247,0,0,1-5.18-15H0v-2.4H2.4A27.426,27.426,0,0,1,7.583,13.85ZM14.02,47.7L5.606,56.1l-1.7-1.7L12.32,46ZM30,12a9.023,9.023,0,0,1,5.877,2.077,6.85,6.85,0,0,1,2.536,5.245V25.2h2.4a1.21,1.21,0,0,1,1.2,1.2v16.8a1.2,1.2,0,0,1-1.2,1.2H19.182a1.189,1.189,0,0,1-1.2-1.2v-16.8a1.2,1.2,0,0,1,1.2-1.2h2.4V19.311C21.586,15.278,25.36,12,30,12Zm6.022,7.322A4.512,4.512,0,0,0,34.326,15.9,6.676,6.676,0,0,0,30,14.4c-3.305,0-6.01,2.2-6.01,4.909L24,25.2H36.021V19.323ZM20.384,27.605v14.4H39.615v-3.6H36.009v-2.4h3.606v-2.4H36.009v-2.4h3.606v-3.6H20.384ZM31.2,36.3v3.313H28.8V36.3A3.52,3.52,0,1,1,31.2,36.3ZM30,31.71a1.285,1.285,0,0,0-1.286,1.272c0,0.012,0,.024,0,0.036A1.3,1.3,0,1,0,30,31.71ZM28.8,55.2V52.8h2.4v2.4a24.987,24.987,0,0,0,13.57-4.717l1.454,1.945A27.441,27.441,0,0,1,31.2,57.6V60H28.8V57.6a27.441,27.441,0,0,1-15.024-5.173l1.454-1.945A24.987,24.987,0,0,0,28.8,55.2ZM45.319,43.611L59.691,57.963l-1.7,1.7L43.619,45.308Z"/>
</svg>
